<?xml version="1.0" encoding="UTF-8" standalone="no"?>
<svg
   width="363"
   height="173"
   viewBox="0 0 363 173"
   version="1.1"
   id="svg120"
   sodipodi:docname="Logo GD.svg"
   inkscape:version="1.2.2 (732a01da63, 2022-12-09)"
   xmlns:inkscape="http://www.inkscape.org/namespaces/inkscape"
   xmlns:sodipodi="http://sodipodi.sourceforge.net/DTD/sodipodi-0.dtd"
   xmlns="http://www.w3.org/2000/svg"
   xmlns:svg="http://www.w3.org/2000/svg">
  <defs
     id="defs124" />
  <sodipodi:namedview
     id="namedview122"
     pagecolor="#ffffff"
     bordercolor="#000000"
     borderopacity="0.25"
     inkscape:showpageshadow="2"
     inkscape:pageopacity="0.0"
     inkscape:pagecheckerboard="0"
     inkscape:deskcolor="#d1d1d1"
     showgrid="false"
     inkscape:zoom="0.85881543"
     inkscape:cx="249.18043"
     inkscape:cy="90.822775"
     inkscape:window-width="1920"
     inkscape:window-height="1017"
     inkscape:window-x="-8"
     inkscape:window-y="-8"
     inkscape:window-maximized="1"
     inkscape:current-layer="svg120" />
  <path
     style="fill:#9ed2fd"
     d="m 569.87739,121.09583 c 0.0204,-1.65 0.2445,-2.20394 0.49804,-1.23097 0.25354,0.97297 0.23687,2.32297 -0.037,3 -0.27393,0.67703 -0.48137,-0.11903 -0.46099,-1.76903 z m 3.72936,-1.25 -2.42431,-2.75 2.75,2.42431 c 2.57029,2.26589 3.20859,3.07569 2.42431,3.07569 -0.17912,0 -1.41662,-1.2375 -2.75,-2.75 z m 78.3714,-0.99413 c 4.28763,-0.1879 11.03763,-0.18676 15,0.003 3.96236,0.1893 0.45429,0.34304 -7.79571,0.34164 -8.25,-0.001 -11.49193,-0.15629 -7.20429,-0.34419 z m 50.45429,0.0119 c 2.3375,-0.21053 6.1625,-0.21053 8.5,0 2.3375,0.21054 0.425,0.3828 -4.25,0.3828 -4.675,0 -6.5875,-0.17226 -4.25,-0.3828 z m -143.01879,-3.34793 c 0.35361,-1.3522 0.8069,-1.8055 1.05655,-1.05655 0.24048,0.72144 -0.0382,1.78716 -0.61931,2.36826 -0.74207,0.74207 -0.87221,0.35164 -0.43724,-1.31171 z m 18.14123,0.33016 c -1.24387,-1.58606 -1.2085,-1.62143 0.37756,-0.37756 1.66575,1.30637 2.19548,2.12756 1.37244,2.12756 -0.20765,0 -0.99515,-0.7875 -1.75,-1.75 z m 3.94006,-3.93311 c 0.72187,-0.28887 1.58437,-0.25335 1.91667,0.0789 0.33229,0.3323 -0.25834,0.56864 -1.3125,0.52522 -1.16495,-0.048 -1.4019,-0.28494 -0.60417,-0.60416 z m -26.73355,-1.90022 c 0.048,-1.16495 0.28494,-1.4019 0.60416,-0.60417 0.28887,0.72187 0.25335,1.58437 -0.0789,1.91667 -0.33229,0.33229 -0.56864,-0.25834 -0.52522,-1.3125 z m 26.79349,-2.16667 c -1.24387,-1.58606 -1.2085,-1.62143 0.37756,-0.37756 0.9625,0.75485 1.75,1.54235 1.75,1.75 0,0.82304 -0.82119,0.29331 -2.12756,-1.37244 z m 35,0 c -1.24387,-1.58606 -1.2085,-1.62143 0.37756,-0.37756 1.66575,1.30637 2.19548,2.12756 1.37244,2.12756 -0.20765,0 -0.99515,-0.7875 -1.75,-1.75 z m -79.8633,-0.73899 c -0.67967,-0.81894 -1.70429,-1.19941 -2.27696,-0.84549 -0.6245,0.38597 -0.73953,0.15539 -0.28741,-0.57615 0.56645,-0.91654 1.22617,-0.79216 2.65451,0.50047 1.04539,0.94608 1.90072,1.87539 1.90072,2.06515 0,0.74339 -0.81146,0.27711 -1.99086,-1.14398 z m 31.8633,-0.26101 c -1.26951,-1.61876 -1.22245,-1.63998 0.62756,-0.28297 1.1,0.80687 2.1875,1.59437 2.41667,1.75 0.22916,0.15563 -0.0532,0.28297 -0.62756,0.28297 -0.57432,0 -1.66182,-0.7875 -2.41667,-1.75 z m 146.37974,-2.75 c 0.0111,-2.2 0.21589,-2.98225 0.45508,-1.73834 0.23919,1.24391 0.23011,3.04391 -0.0202,4 -0.25029,0.95609 -0.446,-0.0617 -0.4349,-2.26166 z m -70.50218,-7.162285 c 0.6875,-0.27741 1.8125,-0.27741 2.5,0 0.6875,0.27741 0.125,0.50439 -1.25,0.50439 -1.375,0 -1.9375,-0.22698 -1.25,-0.50439 z m -8.87756,-3.08772 c -1.24387,-1.586052 -1.2085,-1.621422 0.37756,-0.37755 1.66575,1.30636 2.19548,2.12755 1.37244,2.12755 -0.20765,0 -0.99515,-0.7875 -1.75,-1.75 z m 79.46377,-14.249996 c 0,-4.125 0.17651,-5.8125 0.39226,-3.75 0.21574,2.0625 0.21574,5.4375 0,7.5 -0.21575,2.0625 -0.39226,0.375 -0.39226,-3.75 z m -146.93122,1.75 -1.90499,-2.25 2.25,1.904988 c 2.11444,1.790218 2.70524,2.595012 1.90499,2.595012 -0.18976,0 -1.20226,-1.0125 -2.25,-2.25 z m 37.67396,0.666667 c 0.048,-1.164943 0.28494,-1.4019 0.60416,-0.604167 0.28887,0.721875 0.25335,1.584375 -0.0789,1.916667 -0.3323,0.332291 -0.56864,-0.258334 -0.52522,-1.3125 z m -99.2065,-8.166667 c -1.24388,-1.586056 -1.20851,-1.621426 0.37755,-0.377555 0.9625,0.754844 1.75,1.542344 1.75,1.75 0,0.823034 -0.82119,0.293303 -2.12755,-1.372445 z m 142.9808,-2.503246 c 0.50384,-0.503846 1.98048,-0.748646 3.28141,-0.543999 2.00169,0.314878 1.86084,0.45572 -0.91608,0.916083 -1.98722,0.329444 -2.92011,0.182693 -2.36533,-0.372084 z m 14.87445,-0.468486 c 1.77523,-0.220912 4.92523,-0.224542 7,-0.0081 2.07476,0.216475 0.6223,0.397221 -3.2277,0.401658 -3.85,0.0044 -5.54754,-0.17268 -3.7723,-0.393592 z m -58.64875,-1.861601 c 0.048,-1.164943 0.28494,-1.4019 0.60416,-0.604167 0.28887,0.721875 0.25335,1.584375 -0.0789,1.916667 -0.3323,0.332291 -0.56864,-0.258334 -0.52522,-1.3125 z M 502.41577,67.471741 c 0.67834,-0.683418 1.48524,-0.990671 1.79313,-0.682784 0.30789,0.307887 -0.24711,0.867048 -1.23333,1.242579 -1.4252,0.542685 -1.54006,0.427821 -0.5598,-0.559795 z m 199.07917,-1.559026 c 0.72187,-0.288871 1.58437,-0.253344 1.91667,0.07895 0.33229,0.332292 -0.25834,0.568641 -1.3125,0.52522 -1.16495,-0.04798 -1.4019,-0.284941 -0.60417,-0.604167 z m -109,-2 c 0.72187,-0.288871 1.58438,-0.253344 1.91667,0.07895 0.33229,0.332292 -0.25834,0.568641 -1.3125,0.52522 -1.16495,-0.04798 -1.4019,-0.284941 -0.60417,-0.604167 z m -76.54347,-3.009877 c 0.97297,-0.253543 2.32297,-0.236869 3,0.03705 0.67703,0.273927 -0.11903,0.481372 -1.76903,0.460992 -1.65,-0.02038 -2.20394,-0.244498 -1.23097,-0.498042 z m 23.49263,-3.01427 c 1.24391,-0.239193 3.04391,-0.230112 4,0.02018 0.95609,0.250293 -0.0617,0.445997 -2.26166,0.434898 -2.2,-0.0111 -2.98225,-0.215885 -1.73834,-0.455078 z m 49.23834,-1.292739 c -0.90129,-0.58246 -1.02463,-0.975486 -0.30902,-0.984687 0.65504,-0.0084 1.4691,0.434687 1.80902,0.984687 0.7673,1.241525 0.42112,1.241525 -1.5,0 z m 53.8125,-1.683114 c 0.72187,-0.288871 1.58437,-0.253344 1.91667,0.07895 0.33229,0.332292 -0.25834,0.568641 -1.3125,0.52522 -1.16495,-0.04798 -1.4019,-0.284941 -0.60417,-0.604167 z m 35,0 c 0.72187,-0.288871 1.58437,-0.253344 1.91667,0.07895 0.33229,0.332292 -0.25834,0.568641 -1.3125,0.52522 -1.16495,-0.04798 -1.4019,-0.284941 -0.60417,-0.604167 z m -109.8125,-1.316886 c -0.90129,-0.58246 -1.02463,-0.975486 -0.30902,-0.984687 0.65504,-0.0084 1.4691,0.434687 1.80902,0.984687 0.7673,1.241525 0.42112,1.241525 -1.5,0 z M 501.4441,50.888568 c 1.24391,-0.239193 3.04391,-0.230112 4,0.02018 0.95609,0.250293 -0.0617,0.445997 -2.26166,0.434898 -2.2,-0.0111 -2.98225,-0.215885 -1.73834,-0.455078 z m 36.64333,-2.542739 -1.90499,-2.25 2.25,1.904988 c 2.11444,1.790218 2.70524,2.595012 1.90499,2.595012 -0.18976,0 -1.20226,-1.0125 -2.25,-2.25 z m 166.54118,-3.5 -3.44617,-3.75 3.75,3.446167 c 2.0625,1.895392 3.75,3.582892 3.75,3.75 0,0.76362 -0.84622,0.04425 -4.05383,-3.446167 z M 504.24673,43.888957 c -0.54268,-1.425198 -0.42782,-1.540062 0.5598,-0.559795 0.68342,0.678334 0.99067,1.485241 0.68278,1.793128 -0.30789,0.307888 -0.86705,-0.247112 -1.24258,-1.233333 z M 644.93244,32.906503 c 0.9625,-0.251527 2.5375,-0.251527 3.5,0 0.9625,0.251528 0.175,0.457323 -1.75,0.457323 -1.925,0 -2.7125,-0.205795 -1.75,-0.457323 z m 7.5625,0.0062 c 0.72187,-0.288871 1.58437,-0.253344 1.91667,0.07895 0.33229,0.332292 -0.25834,0.568641 -1.3125,0.52522 -1.16495,-0.04798 -1.4019,-0.284941 -0.60417,-0.604167 z m 4,0 c 0.72187,-0.288871 1.58437,-0.253344 1.91667,0.07895 0.33229,0.332292 -0.25834,0.568641 -1.3125,0.52522 -1.16495,-0.04798 -1.4019,-0.284941 -0.60417,-0.604167 z m 7,0 c 0.72187,-0.288871 1.58437,-0.253344 1.91667,0.07895 0.33229,0.332292 -0.25834,0.568641 -1.3125,0.52522 -1.16495,-0.04798 -1.4019,-0.284941 -0.60417,-0.604167 z m 9.4375,-0.0062 c 0.9625,-0.251527 2.5375,-0.251527 3.5,0 0.9625,0.251528 0.175,0.457323 -1.75,0.457323 -1.925,0 -2.7125,-0.205795 -1.75,-0.457323 z m -127.25,-7.310674 c -0.90129,-0.58246 -1.02463,-0.975486 -0.30902,-0.984687 0.65504,-0.0084 1.4691,0.434687 1.80902,0.984687 0.7673,1.241525 0.42112,1.241525 -1.5,0 z"
     id="path192" />
  <g
     id="g208"
     transform="translate(-570.80674,111.78188)">
    <path
       style="fill:#ef8c14"
       d="m 624.19593,49.299054 c -10.40438,-8.22516 -18.20171,-16.69507 -22.86311,-24.8352 -1.49469,-2.61015 -2.887,-4.9577 -3.09403,-5.21677 -0.71513,-0.89491 -1.99005,2.15269 -3.24332,7.75289 -1.21146,5.41337 -1.3049,5.53004 -2.53829,3.16921 -4.26527,-8.16415 -9.1548,-32.3255704 -8.22002,-40.618896 0.26856,-2.38269 0.14533,-4.33217 -0.27386,-4.33217 -1.08962,0 -3.93413,4.56868 -5.50688,8.8448056 l -1.34437,3.6552 -0.0705,-3.38067 c -0.0387,-1.859375 0.62985,-7.9343756 1.48578,-13.5000016 3.59976,-23.407162 14.70927,-51.042041 31.19698,-77.602434 10.06464,-16.213328 10.06008,-15.063968 -0.02,5.044156 -5.09889,10.171449 -10.93188,23.43126 -12.9622,29.466246 -4.09498,12.172051 -5.66997,20.472703 -3.88455,20.472703 0.61244,0 1.11354,-0.361194 1.11354,-0.802654 0,-1.007042 8.19004,-9.34064 8.68918,-8.841494 0.20173,0.201724 -0.13898,1.666681 -0.75713,3.25546 -2.03739,5.23653 -3.84658,13.098087 -4.51444,19.616771 -0.64077,6.254332 1.05547,20.7873726 2.42274,20.7575026 0.36281,-0.008 2.00275,-2.3704206 3.64432,-5.2500006 l 2.98466,-5.235586 0.66681,11.0000016 c 0.66902,11.0364204 1.4168,14.2406904 6.24257,26.7497704 3.89672,10.10088 15.01882,28.9616 20.93434,35.50023 4.1064,4.53895 -0.32726,2.04747 -10.08825,-5.66907 z m 201.7752,-65.27821 c 0,-22.223547 -0.30252,-28.394504 -1.60967,-32.834793 -0.88533,-3.00736 -1.82825,-9.879651 -2.09539,-15.271758 l -0.48572,-9.803829 39.34539,0.319821 c 42.55185,0.345885 39.51237,-0.0096 51.70234,6.047385 11.52513,5.726664 17.90247,20.802481 16.89764,39.945434 -1.02513,19.5296246 -8.18696,30.00208 -24.73026,36.1620303 -5.12685,1.9089897 -8.16853,2.0838197 -42.27433,2.4297897 l -36.75,0.37279 z m 73.28402,3.932654 c 5.98147,-3.923441 9.00249,-16.22132 6.7043,-27.291645 -0.95735,-4.611513 -2.06024,-6.750942 -4.99097,-9.681671 l -3.76206,-3.762059 h -26.61764 -26.61765 v 21.560538 21.5605373 l 26.29688,-0.31054 c 23.11219,-0.2729303 26.62269,-0.5242503 28.98714,-2.0751603 z"
       id="path184" />
    <path
       style="fill:#028bfd"
       d="m 630.67302,26.532202 c -0.3193,-0.51663 -0.28834,-2.76663 0.0688,-5 0.35713,-2.23337 0.42177,-4.06067 0.14364,-4.06067 -0.27812,0 -2.18428,0.70136 -4.23589,1.55858 -4.39154,1.8349 -4.9736,1.54414 -3.47834,-1.7376 0.70154,-1.53971 2.91624,-3.13816 6.01306,-4.3399 3.7194,-1.44334 5.15077,-2.6147 5.93137,-4.8539203 0.56589,-1.62331 0.82483,-3.1555301 0.57543,-3.4049401 -0.41108,-0.41107 -3.09978,0.37462 -7.78856,2.2759601 -1.54233,0.62543 -1.61616,0.36758 -0.67105,-2.3435701 0.84638,-2.42793 2.0609,-3.37812 5.983,-4.68082995 2.81621,-0.9354 4.92105,-2.24172005 4.92105,-3.05415005 0,-1.75082 0.28144,-1.76397 -9.82194,0.45886 l -8.32194,1.83089005 0.57992,-2.31059005 c 1.64701,-6.562175 2.26302,-7.1945246 8.2117,-8.4294646 4.6262,-0.9604 6.16278,-0.93935 7.80614,0.10692 11.90243,7.5778546 23.4692,6.1431546 31.10583,-3.858244 3.78849,-4.961625 4.59976,-8.711089 1.69029,-7.811975 -0.9625,0.297441 -5.72331,1.478145 -10.57958,2.623786 -9.64135,2.274488 -9.94336,2.204364 -13.79356,-3.202752 -1.94614,-2.7331 -1.96328,-3.050789 -0.41594,-7.70939 l 1.61384,-4.858823 8.71262,-1.729292 c 4.79194,-0.951111 9.53745,-2.170165 10.54558,-2.709009 1.77729,-0.949957 1.77729,-1.042342 0,-3.041363 -5.13319,-5.773616 -16.62795,-7.43916 -24.35669,-3.529184 -3.85215,1.948807 -10.04643,8.460464 -11.1244,11.694402 -0.19367,0.581004 -2.98951,1.609567 -6.21297,2.285696 l -5.86084,1.229324 -2.38406,-2.979711 c -1.31124,-1.638841 -2.3863,-3.217681 -2.38903,-3.508534 -0.003,-0.290852 3.82003,-1.60169 8.49503,-2.912973 10.61091,-2.976237 11.4486,-5.058204 2.03518,-5.058204 -5.44136,0 -6.63426,-0.316623 -7.53518,-2 -0.98463,-1.839795 -0.76049,-2 2.79815,-2 4.87001,0 5.48867,-0.632629 3.53479,-3.614619 -1.34614,-2.054465 -2.35786,-2.385381 -7.29296,-2.385381 -4.28114,0 -6.14848,-0.462407 -7.38499,-1.828741 -2.47523,-2.735099 -2.08394,-3.171259 2.84501,-3.171259 4.95569,0 5.50998,-0.776005 2.5,-3.5 -2.53258,-2.291957 -2.63426,-5.5 -0.17431,-5.5 1.00412,0 2.86953,1.111131 4.14536,2.46918 1.27582,1.358048 2.64515,2.268022 3.04296,2.022163 0.39781,-0.245859 1.03699,-2.36949 1.42042,-4.71918 l 0.69713,-4.272163 1.80096,2.196222 c 1.54377,1.882576 1.65884,2.915032 0.80577,7.229482 -0.82354,4.165103 -0.71034,5.468009 0.65631,7.553778 2.22698,3.398807 4.60117,3.280896 4.62071,-0.229482 0.0226,-4.067288 1.32901,-5.744971 2.95132,-3.790207 0.92133,1.110136 1.09629,3.267457 0.61207,7.547334 -0.98433,8.700323 0.81185,7.524325 4.0542,-2.654379 l 2.75452,-8.647251 6.39915,6.754393 c 4.41603,4.66119 6.72034,6.433201 7.43557,5.717966 0.71524,-0.715236 0.0879,-2.578032 -2.0244,-6.010911 -1.9423,-3.156632 -2.86051,-5.740521 -2.51265,-7.070715 0.75353,-2.881515 1.45024,-2.634358 4.09898,1.454106 2.59059,3.9987 3.68538,3.852405 4.57822,-0.611778 0.48671,-2.433557 -0.013,-4.024027 -2.31623,-7.371618 -1.93954,-2.81902 -2.74599,-4.998391 -2.37482,-6.417749 0.78861,-3.015663 1.83213,-2.688815 4.33261,1.35704 2.43067,3.932909 3.54487,3.82494 4.48032,-0.434159 0.69812,-3.17852 2.44536,-4.351692 4.54681,-3.052923 1.08673,0.671632 1.12409,1.568958 0.1918,4.606627 -0.6368,2.074885 -0.95227,3.978063 -0.70105,4.229285 0.25122,0.251222 2.34144,-0.283556 4.64494,-1.188394 2.30349,-0.904839 4.3109,-1.52243 4.46091,-1.372425 0.15,0.150005 -0.2758,1.372978 -0.94622,2.717718 -0.73265,1.46954 -2.99799,3.102151 -5.67818,4.092202 -3.36115,1.241599 -4.78483,2.445217 -5.78153,4.88786 -0.72728,1.782352 -1.07926,3.483703 -0.78218,3.78078 0.29708,0.297078 2.34931,-0.275683 4.56053,-1.272802 4.58042,-2.065482 5.10655,-1.89782 3.91639,1.248038 -0.52751,1.394331 -2.95166,3.177277 -6.38344,4.694971 -5.21738,2.307373 -7.25173,4.556991 -4.12092,4.556991 0.77662,0 4.90777,-0.668846 9.18034,-1.486323 4.27258,-0.817478 7.91119,-1.343447 8.08582,-1.168821 0.17463,0.174627 -0.80653,3.622291 -2.18034,7.661476 -1.37382,4.039185 -2.49785,7.977654 -2.49785,8.752154 0,2.455647 2.42161,0.727409 4.67473,-3.336228 2.94714,-5.315351 4.05516,-6.422258 6.42868,-6.422258 1.99643,0 1.99341,0.05542 -0.21728,3.988813 -2.57911,4.588914 -2.15723,5.595341 1.80137,4.297266 1.87176,-0.613773 3.70498,-2.554408 5.48071,-5.801836 2.31765,-4.238493 6.23949,-7.409874 7.54674,-6.102631 0.23351,0.233517 -0.48754,2.212465 -1.60234,4.397661 -1.11481,2.185196 -1.79085,4.209151 -1.50233,4.497677 0.28853,0.288527 2.1232,0.0832 4.07705,-0.456286 2.36542,-0.653124 3.89091,-0.642428 4.56534,0.03201 1.4545,1.454493 0.13633,4.147326 -2.03016,4.147326 -1.01214,0 -2.66191,0.600813 -3.66616,1.33514 -1.7018,1.244381 -1.57883,1.487845 1.80887,3.581559 1.99913,1.235531 3.63478,2.659718 3.63478,3.16486 0,2.007647 -5.83553,0.749636 -9.69765,-2.090599 -2.62862,-1.933105 -4.75507,-2.79272 -5.94701,-2.404066 -1.02044,0.332736 -2.53034,0.82255 -3.35534,1.088476 -1.09599,0.353275 -0.45497,1.366813 2.37995,3.763042 l 3.87996,3.279539 -2.77059,0.695373 c -2.1833,0.547975 -3.53567,0.08742 -6.37995,-2.172718 -5.02203,-3.990624 -5.52305,-4.221004 -7.08303,-3.256885 -1.05691,0.653205 0.0925,2.510558 4.93066,7.967773 3.46985,3.913809 6.13651,7.251245 5.92591,7.416523 -0.2106,0.165279 -4.33759,1.111059 -9.17108,2.101739 -10.21686,2.09406 -11.3893,4.2053996 -2.06711,3.7224996 4.85629,-0.25156 6.26085,0.0459 7.69403,1.62956 1.70524,1.884275 1.62879,1.955965 -2.79276,2.619015 -2.50029,0.37494 -4.54599,0.96264 -4.54599,1.30599 0,0.34335 0.96553,1.65203 2.14561,2.90818005 1.8985,2.02084995 2.79109,2.21683995 7.75,1.70167 4.86437,-0.50535 5.85593,-0.30325 7.50938,1.53054995 l 1.90499,2.11278 h -4.65499 c -5.17907,0 -6.0313,1.44448 -2.65499,4.5000001 2.53258,2.2919603 2.63426,5.5000003 0.17431,5.5000003 -1.00412,0 -2.86954,-1.11113 -4.14536,-2.46918 -2.93982,-3.1293003 -4.02895,-2.4458703 -4.02895,2.5282 0,4.23436 -0.94103,4.92234 -3.12755,2.28651 -0.90554,-1.09162 -1.25416,-3.50077 -1.02475,-7.0815503 0.29342,-4.5798501 -0.0141,-5.8122001 -1.96989,-7.8940501 -2.12544,-2.26241995 -2.37645,-2.31783995 -3.02742,-0.66845 -0.3904,0.98919 -0.74145,3.33076 -0.78011,5.2035101 -0.0698,3.38381 -0.0832,3.39329 -2.14925,1.52355 -1.74895,-1.58279 -2.02674,-2.8242501 -1.75,-7.82082005 0.49145,-8.87292505 -1.47964,-8.20647505 -4.70821,1.59190995 -1.50424,4.5652 -2.90671,8.4958304 -3.11659,8.7347304 -0.20989,0.23889 -3.24904,-2.6861103 -6.75369,-6.5000004 -8.26806,-8.99765 -10.05558,-7.95921 -3.60806,2.09605 1.18004,1.8403401 1.71519,3.9020601 1.36269,5.2500004 -0.80694,3.08574 -1.72871,2.78319 -3.92054,-1.2868003 -2.20664,-4.0974701 -3.55425,-4.0310101 -4.77791,0.2356203 -0.73988,2.57983 -0.41565,3.76996 2.02191,7.42165 1.68066,2.51779 2.75301,5.29655 2.54668,6.59912 -0.48753,3.07772 -1.31582,2.82589 -4.08627,-1.24233 -2.63742,-3.87286 -3.58308,-3.82704 -4.59955,0.22286 -0.91426,3.64271 -3.66654,5.47801 -4.99399,3.33014 z M 747.66214,10.424242 C 731.93019,7.9575517 720.55437,-2.8007684 717.2599,-18.32769 c -1.44134,-6.793052 -1.44191,-19.604268 -10e-4,-26.401558 3.30568,-15.595994 14.16371,-25.118892 31.75215,-27.847833 4.3603,-0.676524 14.8596,-0.972431 25.97187,-0.731979 17.5617,0.380008 19.07891,0.568418 25.93801,3.221027 12.22726,4.72863 19.56061,13.097543 21.73965,24.809564 l 0.69769,3.75 H 811.7939 800.22952 l -1.71688,-3.61806 c -3.24375,-6.835701 -5.28498,-7.373982 -27.97907,-7.378202 -19.20647,-0.0036 -20.24898,0.09651 -23.39839,2.246262 -4.41623,3.014474 -6.72554,7.678406 -7.53238,15.212539 -0.96173,8.980457 0.90262,16.879312 5.0525,21.406467 l 3.32841,3.63099 h 21.82599 c 19.78674,0 22.0877,-0.17738 24.6271,-1.8985 1.54061,-1.04417 3.46467,-3.181671 4.27568,-4.749996 l 1.4744,-2.8515 H 779.6612 759.13552 v -8 -8 h 32.5 32.5 v 23.499996 23.500005 h -7.97432 c -7.85025,0 -7.99848,-0.0467 -9.52682,-3.0022103 l -1.55251,-3.0022101 -3.72317,1.6014801 c -2.04775,0.88081 -5.07318,2.04351 -6.72318,2.58378 -4.1061,1.3444803 -39.60155,1.9277403 -46.97338,0.7718703 z"
       id="path182" />
  </g>
</svg>
